<?xml version="1.0" encoding="UTF-8"?>
<svg width="31px" height="22px" viewBox="0 0 31 22" version="1.1" xmlns="http://www.w3.org/2000/svg" xmlns:xlink="http://www.w3.org/1999/xlink">
    <!-- Generator: Sketch 41.2 (35397) - http://www.bohemiancoding.com/sketch -->
    <title>Group</title>
    <desc>Created with Sketch.</desc>
    <defs></defs>
    <g id="Page-1" stroke="none" stroke-width="1" fill="none" fill-rule="evenodd">
        <g id="Group" transform="translate(1.000000, 1.000000)" stroke="#FFFFFF" fill="#FFFFFF">
            <polygon id="Path" points="27.6900528 4.25676877 21.3047546 4.25676877 20.5265419 7.6277668 26.4019767 7.6277668 25.5418469 11.4296443 19.6664122 11.4296443 17.869885 19.4616107 13.1469393 19.4616107 17.412279 0.454891304 28.5205229 0.454891304"></polygon>
            <path d="M8.47625116,1.4687253 C4.2377464,1.4687253 3.08243254,7.24757905 2.51889925,9.80617589 C1.87627358,12.7222826 0.427187978,18.4491107 4.85353716,18.4491107 C7.85904803,18.4491107 9.19938159,15.358251 9.81799708,13.0264328 L11.5608544,13.0264328 C10.9182287,16.2707016 8.34207656,19.917836 4.31683879,19.917836 C-1.50633852,19.917836 -0.0572529192,13.4559783 0.855134309,9.42865613 C1.74068662,5.52539526 3.51179124,0 8.85194002,0 C12.474654,0 13.680813,2.71200593 13.00994,5.92959486 L11.2656703,5.92959486 C11.5891017,3.67514822 11.1851656,1.4687253 8.47625116,1.4687253 L8.47625116,1.4687253 Z" id="Path"></path>
        </g>
    </g>
</svg>